<?xml version="1.0" encoding="UTF-8"?>
<svg xmlns="http://www.w3.org/2000/svg" xmlns:xlink="http://www.w3.org/1999/xlink" width="375pt" height="374.999991pt" viewBox="0 0 375 374.999991" version="1.2">
<defs>
<clipPath id="clip1">
  <path d="M 39.542969 12 L 335.792969 12 L 335.792969 363.472656 L 39.542969 363.472656 Z M 39.542969 12 "/>
</clipPath>
<clipPath id="clip2">
  <path d="M 39.542969 11.722656 L 335.792969 11.722656 L 335.792969 363.472656 L 39.542969 363.472656 Z M 39.542969 11.722656 "/>
</clipPath>
<clipPath id="clip3">
  <path d="M 219 117 L 268.558594 117 L 268.558594 208 L 219 208 Z M 219 117 "/>
</clipPath>
<clipPath id="clip4">
  <path d="M 106.558594 117 L 156 117 L 156 208 L 106.558594 208 Z M 106.558594 117 "/>
</clipPath>
<clipPath id="clip5">
  <path d="M 161 102 L 214 102 L 214 223.449219 L 161 223.449219 Z M 161 102 "/>
</clipPath>
<filter id="alpha" filterUnits="objectBoundingBox" x="0%" y="0%" width="100%" height="100%">
  <feColorMatrix type="matrix" in="SourceGraphic" values="0 0 0 0 1 0 0 0 0 1 0 0 0 0 1 0 0 0 1 0"/>
</filter>
<mask id="mask0">
  <g filter="url(#alpha)">
<rect x="0" y="0" width="375" height="374.999991" style="fill:rgb(0%,0%,0%);fill-opacity:0.2863;stroke:none;"/>
  </g>
</mask>
<clipPath id="clip7">
  <path d="M 8 6.757812 L 164 6.757812 L 164 89.480469 L 8 89.480469 Z M 8 6.757812 "/>
</clipPath>
<clipPath id="clip6">
  <rect x="0" y="0" width="171" height="90"/>
</clipPath>
<g id="surface5" clip-path="url(#clip6)">
<g clip-path="url(#clip7)" clip-rule="nonzero">
<path style=" stroke:none;fill-rule:evenodd;fill:rgb(3.919983%,61.569214%,0%);fill-opacity:1;" d="M 140.113281 69.414062 C 122.8125 81.816406 104.417969 89.269531 85.734375 89.269531 C 67.050781 89.269531 48.65625 81.816406 31.355469 69.414062 C 25.335938 65.09375 19.867188 60.492188 15.058594 55.859375 C 13.390625 54.246094 9.300781 49.957031 9.015625 49.640625 C 8.121094 48.605469 8.121094 47.050781 9.015625 46.015625 C 9.300781 45.699219 13.390625 41.410156 15.058594 39.800781 C 19.867188 35.167969 25.335938 30.5625 31.355469 26.246094 C 48.65625 13.839844 67.050781 6.386719 85.734375 6.386719 C 104.417969 6.386719 122.8125 13.839844 140.113281 26.246094 C 146.128906 30.5625 151.601562 35.167969 156.40625 39.800781 C 158.078125 41.410156 162.164062 45.699219 162.453125 46.015625 C 163.34375 47.050781 163.34375 48.605469 162.453125 49.640625 C 162.164062 49.957031 158.078125 54.246094 156.40625 55.859375 C 151.601562 60.492188 146.128906 65.09375 140.113281 69.414062 Z M 34.578125 64.921875 C 51.042969 76.691406 68.375 83.742188 85.734375 83.742188 C 103.09375 83.742188 120.421875 76.691406 136.890625 64.921875 C 142.675781 60.777344 147.945312 56.316406 152.578125 51.886719 C 154.191406 50.332031 156.582031 47.828125 156.582031 47.828125 C 156.582031 47.828125 154.191406 45.324219 152.578125 43.769531 C 147.945312 39.339844 142.675781 34.878906 136.890625 30.734375 C 120.421875 18.964844 103.09375 11.914062 85.734375 11.914062 C 68.375 11.914062 51.042969 18.964844 34.578125 30.734375 C 28.792969 34.878906 23.523438 39.339844 18.886719 43.769531 C 17.277344 45.324219 14.886719 47.828125 14.886719 47.828125 C 14.886719 47.828125 17.277344 50.332031 18.886719 51.886719 C 23.523438 56.316406 28.792969 60.777344 34.578125 64.921875 Z M 85.734375 75.457031 C 70.476562 75.457031 58.097656 63.082031 58.097656 47.828125 C 58.097656 32.574219 70.476562 20.203125 85.734375 20.203125 C 100.992188 20.203125 113.371094 32.574219 113.371094 47.828125 C 113.371094 63.082031 100.992188 75.457031 85.734375 75.457031 Z M 85.734375 69.929688 C 97.941406 69.929688 107.84375 60.03125 107.84375 47.828125 C 107.84375 35.625 97.941406 25.726562 85.734375 25.726562 C 73.527344 25.726562 63.625 35.625 63.625 47.828125 C 63.625 60.03125 73.527344 69.929688 85.734375 69.929688 Z M 85.734375 56.117188 C 81.15625 56.117188 77.441406 52.40625 77.441406 47.828125 C 77.441406 43.253906 81.15625 39.539062 85.734375 39.539062 C 90.3125 39.539062 94.023438 43.253906 94.023438 47.828125 C 94.023438 52.40625 90.3125 56.117188 85.734375 56.117188 Z M 85.734375 56.117188 "/>
</g>
</g>
</defs>
<g id="surface1">
<path style="fill-rule:evenodd;fill:rgb(3.919983%,61.569214%,0%);fill-opacity:1;stroke-width:2;stroke-linecap:butt;stroke-linejoin:miter;stroke:rgb(0%,0%,0%);stroke-opacity:1;stroke-miterlimit:4;" d="M 790.941601 118.816697 L 796.524192 118.816697 L 820.5457 130.879922 C 836.566101 138.940266 847.149384 144.21679 852.295552 146.709493 C 857.441719 149.22039 874.953235 157.335319 904.848283 171.090671 C 934.725148 184.827827 950.181834 191.778282 951.181972 191.905647 C 952.182111 192.051206 960.110481 195.308095 974.985268 201.694508 C 989.860055 208.080921 1001.298003 212.811597 1009.317295 215.850147 C 1017.318403 218.906892 1028.901825 223.073526 1044.049377 228.35005 C 1059.215114 233.626574 1068.798259 236.956242 1072.798813 238.35725 C 1076.799367 239.740063 1081.818244 241.413995 1087.819075 243.342655 C 1093.819906 245.28951 1101.548249 247.654848 1110.985919 250.43867 C 1120.42359 253.204296 1132.443436 256.533964 1147.027274 260.427675 C 1161.611111 264.321385 1175.758525 267.778418 1189.487699 270.835163 C 1203.216873 273.891907 1212.090829 275.838763 1216.091383 276.675729 C 1220.091937 277.512694 1232.820972 279.859838 1254.278489 283.753548 C 1275.736006 287.647259 1289.17423 289.994402 1294.611347 290.831368 C 1300.030279 291.668334 1313.341213 293.742553 1334.507781 297.072222 C 1355.674348 300.420085 1366.384922 302.075822 1366.675871 302.075822 C 1366.966821 302.075822 1377.259155 304.022677 1397.571059 307.916388 C 1417.864778 311.791903 1428.102559 313.811538 1428.248034 313.957097 L 1428.448062 314.157241 L 1427.175158 376.220077 C 1426.30231 417.5953 1424.156558 471.051943 1420.737903 536.571811 C 1417.301064 602.109874 1414.591597 647.924655 1412.573136 674.03435 C 1410.572859 700.125849 1408.299817 722.487393 1405.717641 741.08259 C 1403.135466 759.695982 1400.13505 777.326849 1396.716395 793.993386 C 1393.279555 810.641727 1389.551766 827.453823 1385.551212 844.393284 C 1381.550658 861.332744 1377.968344 876.17979 1374.822454 888.952616 C 1371.676564 901.725443 1367.966959 915.462599 1363.675456 930.182281 C 1359.383953 944.901962 1356.801777 953.799273 1355.947113 956.837822 C 1355.092449 959.894567 1353.801361 963.788278 1352.092034 968.500759 C 1350.382706 973.231436 1348.364245 979.053806 1346.091203 986.004262 C 1343.799976 992.936522 1340.217662 1002.943722 1335.362444 1015.989472 C 1330.489042 1029.035222 1326.488488 1039.460905 1323.342598 1047.230131 C 1320.196708 1054.999357 1316.341629 1064.315151 1311.759176 1075.141122 C 1307.194907 1085.967093 1301.321367 1099.012843 1294.174923 1114.296566 C 1287.028479 1129.562095 1282.736975 1138.441211 1281.300413 1140.952108 C 1279.882034 1143.444811 1274.66313 1152.542265 1265.643699 1168.226277 C 1256.642453 1183.910289 1251.205336 1193.226082 1249.350534 1196.137268 C 1247.477547 1199.048453 1243.058753 1206.417391 1236.0396 1218.207692 C 1229.03863 1230.016188 1224.456177 1237.512491 1222.310426 1240.6966 C 1220.164674 1243.898904 1216.873309 1248.902504 1212.454516 1255.689205 C 1208.017538 1262.494101 1204.435223 1267.770625 1201.725757 1271.518776 C 1198.998107 1275.266927 1195.852217 1279.72468 1192.288087 1284.855645 C 1188.705772 1289.986609 1185.287117 1294.717285 1181.995752 1299.011284 C 1178.704387 1303.323477 1176.122212 1306.926069 1174.267409 1309.85545 C 1172.412607 1312.766635 1169.684957 1316.514786 1166.120827 1321.099904 C 1162.538513 1325.666826 1159.101673 1330.251943 1155.828492 1334.83706 C 1152.537128 1339.422177 1148.954813 1344.134659 1145.099734 1348.992699 C 1141.22647 1353.85074 1137.95329 1358.017374 1135.225639 1361.492602 C 1132.516173 1364.96783 1126.71537 1371.554387 1117.859598 1381.288663 C 1108.985642 1391.004745 1098.547833 1402.103639 1086.527987 1414.603542 C 1074.526325 1427.103444 1063.943041 1437.783856 1054.778136 1446.681167 C 1045.631415 1455.560282 1039.557846 1461.182509 1036.557431 1463.547847 C 1033.557015 1465.913186 1026.537862 1471.881116 1015.536338 1481.451638 C 1004.51663 1491.040355 997.80661 1496.862726 995.369909 1498.955141 C 992.933208 1501.02936 986.932377 1506.160325 977.349232 1514.366229 C 967.766087 1522.553938 961.474307 1527.830461 958.473891 1530.1958 C 955.473476 1532.542943 952.036636 1535.326764 948.181557 1538.510873 C 944.308293 1541.713177 938.943914 1546.079955 932.088419 1551.629403 C 925.21474 1557.197045 919.995835 1561.290899 916.431706 1563.929161 C 912.849391 1566.567423 909.412552 1568.914566 906.139371 1571.006981 C 902.848006 1573.0812 896.828991 1576.701987 888.118694 1581.832952 C 879.390213 1586.963916 873.662147 1590.439144 870.952681 1592.24044 C 868.243215 1594.059931 865.151877 1595.934006 861.733222 1597.862667 C 858.296383 1599.809522 854.714068 1602.029301 851.004464 1604.540198 C 847.276675 1607.032901 844.567209 1608.834197 842.857881 1609.944086 C 841.130369 1611.053976 837.420765 1613.000831 831.692699 1615.784652 C 825.982817 1618.550278 819.109138 1621.752582 811.10803 1625.355174 C 803.088738 1628.975961 797.524331 1631.323105 794.378441 1632.451189 L 789.650513 1634.106926 L 784.504346 1632.851477 C 781.067506 1632.032706 777.357902 1630.631698 773.357348 1628.684843 C 769.33861 1626.756182 762.62859 1623.426514 753.190919 1618.695838 C 743.753248 1613.983356 738.316132 1611.053976 736.879569 1609.944086 C 735.461191 1608.834197 731.80614 1606.414274 725.950783 1602.666123 C 720.077243 1598.917971 715.640265 1596.13415 712.639849 1594.332854 C 709.639434 1592.531558 703.784077 1589.056331 695.055596 1583.925366 C 686.327115 1578.776207 680.326284 1575.173615 677.034919 1573.0812 C 673.743554 1571.006981 670.324899 1568.641643 666.742584 1566.003381 C 663.16027 1563.365119 659.086979 1560.253789 654.52271 1556.633003 C 649.940258 1553.030411 643.866689 1548.09959 636.283821 1541.840541 C 628.700953 1535.599688 622.118223 1530.177605 616.553816 1525.610682 C 610.971225 1521.025565 602.824642 1514.07511 592.095884 1504.777511 C 581.367126 1495.479913 574.511631 1489.639347 571.493031 1487.292204 C 568.492616 1484.926866 561.92807 1479.377418 551.763026 1470.625667 C 541.616167 1461.873916 535.960838 1456.943095 534.815225 1455.833206 C 533.669612 1454.723316 528.596182 1449.792496 519.594935 1441.05894 C 510.575505 1432.307188 504.283724 1426.066334 500.719594 1422.299988 C 497.13728 1418.551837 489.281647 1410.236764 477.116326 1397.318378 C 464.969189 1384.399993 457.67727 1376.485207 455.240569 1373.574022 C 452.803868 1370.662836 449.239738 1366.350643 444.511811 1360.655636 C 439.802068 1354.978824 436.074279 1350.393707 433.364813 1346.91848 C 430.637162 1343.443252 427.927696 1339.84066 425.200046 1336.092509 C 422.49058 1332.344357 419.635639 1328.450647 416.635224 1324.429572 C 413.616624 1320.408497 410.907158 1316.78771 408.470457 1313.603601 C 406.05194 1310.401297 403.978925 1307.562891 402.251414 1305.051994 C 400.542086 1302.559291 398.178122 1299.302402 395.177707 1295.263133 C 392.177291 1291.242058 389.595115 1287.639466 387.449364 1284.437162 C 385.303612 1281.253053 382.448671 1277.086418 378.866357 1271.937259 C 375.302227 1266.806295 372.574577 1262.78522 370.719774 1259.874034 C 368.864972 1256.944654 365.864557 1252.359537 361.718528 1246.118683 C 357.572499 1239.877829 354.844849 1235.565636 353.553761 1233.200297 C 352.280857 1230.853154 348.698543 1224.885224 342.843187 1215.296507 C 336.969646 1205.725985 333.114567 1199.466936 331.259765 1196.55575 C 329.386778 1193.644565 324.749772 1185.657 317.312379 1172.61125 C 309.874985 1159.547305 304.292394 1149.703859 300.582789 1143.026328 C 296.855001 1136.366991 293.563636 1130.126137 290.708695 1124.285571 C 287.853754 1118.4632 283.8532 1109.711449 278.707033 1098.048512 C 273.542681 1086.385576 270.97869 1080.417645 270.97869 1080.144722 C 270.97869 1079.853603 268.396514 1073.46719 263.250347 1060.985482 C 258.10418 1048.48558 254.103626 1038.623939 251.248685 1031.40056 C 248.37556 1024.177181 244.375006 1013.223846 239.228839 998.504164 C 234.082672 983.784483 228.936505 968.100471 223.790337 951.433934 C 218.64417 934.767398 212.916104 914.498269 206.624324 890.626548 C 200.332544 866.736632 195.895566 848.960206 193.331574 837.297269 C 190.749398 825.652527 187.185269 808.713067 182.602816 786.497083 C 178.020363 764.281099 175.310897 749.688782 174.456233 742.756521 C 173.583385 735.806066 171.728583 714.572607 168.873642 679.019755 C 166.018701 643.485097 164.145715 616.683996 163.291051 598.634646 C 162.436387 580.585296 161.436248 561.426057 160.290635 541.156928 C 159.145022 520.887799 157.581169 487.700285 155.580892 441.61258 C 153.562431 395.524875 152.562292 362.883208 152.562292 343.723969 L 152.562292 314.994207 L 155.36268 313.538615 C 157.217482 312.556089 162.290912 311.37342 170.58297 309.990607 C 178.875027 308.607794 190.331159 306.806498 204.914996 304.568524 C 219.498834 302.348745 241.66554 298.746153 271.415114 293.742553 C 301.146504 288.757148 322.458546 285.136361 335.333056 282.916582 C 348.207566 280.696804 365.209921 277.221576 386.376488 272.509094 C 407.543055 267.778418 425.854682 263.33886 441.293183 259.172226 C 456.749869 255.005592 470.042619 251.130076 481.189617 247.509289 C 492.3548 243.906697 501.065097 241.122876 507.356877 239.176021 C 513.648657 237.24736 519.667673 235.300505 525.377554 233.35365 C 531.10562 231.406795 542.543568 227.24016 559.709581 220.853747 C 576.85741 214.467334 592.950548 208.008141 607.97081 201.494364 C 622.991071 194.962392 630.992179 191.632723 631.992318 191.487164 C 632.992456 191.3598 640.211638 188.230275 653.649862 182.116786 C 667.106271 176.003296 679.253408 170.453849 690.127641 165.450249 C 700.98369 160.464844 711.712448 155.461244 722.295732 150.457644 C 732.879015 145.472239 746.044475 138.940266 761.773926 130.879922 L 785.35901 118.816697 Z M 790.941601 118.816697 " transform="matrix(0.214814,0,0,0.214689,18.278265,-0.985221)"/>
<path style="fill-rule:evenodd;fill:rgb(3.919983%,61.569214%,0%);fill-opacity:1;stroke-width:2;stroke-linecap:butt;stroke-linejoin:miter;stroke:rgb(0%,0%,0%);stroke-opacity:1;stroke-miterlimit:4;" d="M 769.33861 132.954141 L 774.921201 132.954141 L 798.942709 145.035561 C 814.963109 153.095906 825.546393 158.372429 830.69256 160.865132 C 835.838727 163.357834 853.350243 171.490959 883.245292 185.228115 C 913.140341 198.983467 928.578842 205.915727 929.578981 206.061286 C 930.579119 206.206845 938.50749 209.463734 953.382277 215.850147 C 968.257064 222.23656 979.695011 226.949042 987.714304 230.005787 C 995.715412 233.062531 1007.298834 237.229166 1022.46457 242.505689 C 1037.612122 247.782213 1047.195268 251.111881 1051.195822 252.494694 C 1055.21456 253.895702 1060.215252 255.551439 1066.216083 257.498294 C 1072.216914 259.44515 1079.945257 261.810488 1089.382928 264.576114 C 1098.820598 267.359935 1110.840445 270.689603 1125.424282 274.583314 C 1140.00812 278.45883 1154.173718 281.934057 1167.902892 284.990802 C 1181.632066 288.047547 1190.487837 289.994402 1194.488391 290.813173 C 1198.50713 291.650139 1211.217981 294.015477 1232.675497 297.909188 C 1254.133014 301.784703 1267.571239 304.150041 1273.008355 304.987007 C 1278.445472 305.823973 1291.738222 307.898193 1312.904789 311.227861 C 1334.071356 314.557529 1344.800115 316.231461 1345.07288 316.231461 C 1345.363829 316.231461 1355.656164 318.178316 1375.968067 322.053832 C 1396.279971 325.947543 1406.499568 327.967177 1406.645042 328.094542 L 1406.863255 328.312881 L 1405.572167 390.375716 C 1404.717503 431.750939 1402.571751 485.189387 1399.134912 550.72745 C 1395.698072 616.265513 1392.988606 662.080294 1390.988329 688.171794 C 1388.988052 714.281489 1386.696826 736.643032 1384.11465 755.238229 C 1381.550658 773.851621 1378.532059 791.482488 1375.113403 808.13083 C 1371.676564 824.797367 1367.948775 841.591268 1363.948221 858.530728 C 1359.947667 875.470189 1356.383537 890.335429 1353.237647 903.108256 C 1350.073572 915.881082 1346.363968 929.618238 1342.072464 944.33792 C 1337.780961 959.057601 1335.21697 967.936717 1334.344121 970.993462 C 1333.489458 974.050206 1332.19837 977.943917 1330.489042 982.656398 C 1328.779715 987.36888 1326.779438 993.209446 1324.488211 1000.159901 C 1322.196985 1007.092161 1318.614671 1017.081167 1313.759453 1030.145111 C 1308.904235 1043.190861 1304.885497 1053.598349 1301.739607 1061.38577 C 1298.593716 1069.154997 1294.738637 1078.452595 1290.156184 1089.278566 C 1285.591916 1100.122732 1279.718375 1113.168482 1272.571931 1128.434011 C 1265.425487 1143.717734 1261.133984 1152.59685 1259.697421 1155.089553 C 1258.279043 1157.60045 1253.060138 1166.697905 1244.040708 1182.381916 C 1235.039461 1198.065928 1229.602345 1207.363526 1227.747542 1210.292907 C 1225.89274 1213.204092 1221.455762 1220.554836 1214.436608 1232.363332 C 1207.435639 1244.153633 1202.853186 1251.66813 1200.707434 1254.852239 C 1198.579867 1258.054543 1195.288502 1263.039948 1190.851524 1269.844845 C 1186.414546 1276.649741 1182.832232 1281.926264 1180.122766 1285.674415 C 1177.4133 1289.422567 1174.267409 1293.862125 1170.685095 1299.011284 C 1167.102781 1304.142248 1163.684126 1308.85473 1160.392761 1313.166923 C 1157.101396 1317.479117 1154.51922 1321.081709 1152.664418 1323.992894 C 1150.809616 1326.90408 1148.10015 1330.670426 1144.517835 1335.237348 C 1140.935521 1339.822465 1137.516866 1344.407582 1134.225501 1348.992699 C 1130.934136 1353.577816 1127.351822 1358.290298 1123.496743 1363.148339 C 1119.641663 1368.006379 1116.350298 1372.173014 1113.622648 1375.648241 C 1110.913182 1379.123469 1105.112379 1385.710026 1096.256607 1395.426107 C 1087.382651 1405.142189 1076.944842 1416.259278 1064.924995 1428.759181 C 1052.923334 1441.240889 1042.34005 1451.939495 1033.193329 1460.818611 C 1024.028423 1469.715922 1017.954855 1475.338148 1014.954439 1477.685292 C 1011.954024 1480.05063 1004.93487 1486.01856 993.933347 1495.607277 C 982.913639 1505.177799 976.203619 1511.018365 973.766918 1513.092585 C 971.330217 1515.184999 965.329386 1520.315964 955.746241 1528.503673 C 946.163095 1536.709577 939.871315 1541.967906 936.8709 1544.333244 C 933.870484 1546.698582 930.433645 1549.482403 926.578565 1552.666512 C 922.705302 1555.868816 917.359107 1560.235595 910.485428 1565.785042 C 903.629933 1571.334489 898.411028 1575.428344 894.828714 1578.066606 C 891.2464 1580.704867 887.827745 1583.070206 884.53638 1585.16262 C 881.245015 1587.23684 875.244184 1590.839432 866.515703 1595.988591 C 857.787221 1601.119555 852.07734 1604.594783 849.349689 1606.396079 C 846.640223 1608.197375 843.56707 1610.071451 840.130231 1612.018306 C 836.693391 1613.965161 833.129261 1616.18494 829.401472 1618.677643 C 825.691868 1621.18854 822.964217 1622.989836 821.25489 1624.099726 C 819.527378 1625.209615 815.817773 1627.15647 810.089707 1629.940291 C 804.379826 1632.705918 797.506146 1635.908222 789.505038 1639.510814 C 781.503931 1643.113406 775.921339 1645.478744 772.775449 1646.588633 L 768.047522 1648.262565 L 762.901355 1647.007116 C 759.464515 1646.17015 755.75491 1644.787337 751.754356 1642.840482 C 747.753802 1640.893627 741.025598 1637.563958 731.587928 1632.851477 C 722.150257 1628.120801 716.71314 1625.209615 715.276578 1624.099726 C 713.8582 1622.989836 710.203148 1620.551718 704.347792 1616.803567 C 698.474251 1613.055416 694.055457 1610.28979 691.055042 1608.488494 C 688.036442 1606.669003 682.181086 1603.21197 673.452604 1598.062811 C 664.724123 1592.931846 658.723292 1589.329254 655.431927 1587.23684 C 652.140562 1585.16262 648.721907 1582.797282 645.139593 1580.15902 C 641.557279 1577.520758 637.483987 1574.391234 632.919719 1570.788642 C 628.337266 1567.167855 622.263698 1562.255229 614.68083 1555.996181 C 607.097961 1549.755327 600.515232 1544.333244 594.950825 1539.748127 C 589.368234 1535.181205 581.221651 1528.230749 570.492893 1518.933151 C 559.764134 1509.635552 552.908639 1503.794986 549.908224 1501.429648 C 546.889624 1499.082505 540.325079 1493.514863 530.160035 1484.781306 C 520.013175 1476.029555 514.357847 1471.098735 513.212233 1469.988845 C 512.084805 1468.878956 506.99319 1463.948135 497.991944 1455.196384 C 488.972513 1446.462828 482.680733 1440.203779 479.116603 1436.455628 C 475.534289 1432.707476 467.678655 1424.374208 455.513334 1411.474017 C 443.366198 1398.555632 436.074279 1390.640846 433.637578 1387.729661 C 431.200877 1384.818475 427.636747 1380.506282 422.90882 1374.811275 C 418.199076 1369.116269 414.471287 1364.531152 411.761821 1361.074119 C 409.034171 1357.598891 406.324705 1353.996299 403.615239 1350.248148 C 400.887588 1346.481802 398.032648 1342.606286 395.032232 1338.585211 C 392.031817 1334.545941 389.304166 1330.943349 386.867465 1327.741045 C 384.448948 1324.556936 382.375934 1321.700336 380.648422 1319.207633 C 378.939094 1316.71493 376.575131 1313.439847 373.574715 1309.418772 C 370.5743 1305.397697 367.992124 1301.77691 365.846372 1298.592801 C 363.700621 1295.390497 360.84568 1291.223863 357.28155 1286.092898 C 353.699236 1280.961934 350.98977 1276.922664 349.116783 1274.011479 C 347.261981 1271.100293 344.261565 1266.515176 340.115537 1260.274322 C 335.969508 1254.015274 333.241857 1249.721275 331.968954 1247.355937 C 330.677866 1244.990599 327.095552 1239.022668 321.240195 1229.452146 C 315.366655 1219.863429 311.511576 1213.622575 309.656773 1210.71139 C 307.801971 1207.782009 303.146781 1199.812639 295.709387 1186.748694 C 288.271994 1173.702945 282.689403 1163.841304 278.979798 1157.181967 C 275.252009 1150.52263 271.978829 1144.263582 269.105703 1138.441211 C 266.250763 1132.600645 262.250209 1123.867088 257.104041 1112.204152 C 251.957874 1100.541215 249.375699 1094.55509 249.375699 1094.282166 C 249.375699 1094.009242 246.811707 1087.622829 241.647356 1075.122927 C 236.501189 1062.623024 232.500635 1052.779578 229.645694 1045.556199 C 226.790753 1038.33282 222.772015 1027.36129 217.625847 1012.641609 C 212.47968 997.940122 207.333513 982.237916 202.187346 965.589574 C 197.041179 948.923037 191.313113 928.653908 185.021333 904.763992 C 178.729552 880.892272 174.292574 863.115845 171.728583 851.452909 C 169.146407 839.789972 165.582277 822.850511 160.999824 800.634527 C 156.417372 778.418543 153.707906 763.844421 152.853242 756.912161 C 151.998578 749.961705 150.125591 728.728246 147.27065 693.175394 C 144.41571 657.640736 142.560907 630.839635 141.688059 612.790285 C 140.833395 594.740935 139.833257 575.581696 138.687644 555.312567 C 137.542031 535.043439 135.978178 501.855924 133.977901 455.768219 C 131.977624 409.66232 130.977485 377.038847 130.977485 357.879608 L 130.977485 329.131652 L 133.759689 327.676059 C 135.614491 326.711729 140.687921 325.52906 148.979978 324.146247 C 157.29022 322.745239 168.728167 320.943943 183.312005 318.724164 C 197.895843 316.504385 220.062549 312.901793 249.812123 307.898193 C 279.543512 302.894593 300.855555 299.292001 313.730065 297.072222 C 326.604575 294.852443 343.625113 291.377215 364.773496 286.646539 C 385.940064 281.934057 404.251691 277.494499 419.690192 273.327865 C 435.146878 269.161231 448.439628 265.267521 459.586626 261.664929 C 470.751808 258.062337 479.48029 255.278515 485.77207 253.33166 C 492.06385 251.384805 498.064681 249.43795 503.774563 247.509289 C 509.502629 245.562434 520.940576 241.3958 538.10659 235.009387 C 555.272603 228.622974 571.347556 222.163781 586.367818 215.631808 C 601.38808 209.118031 609.389188 205.788363 610.389326 205.642803 C 611.389465 205.497244 618.608646 202.385915 632.065055 196.272425 C 645.50328 190.158936 657.650416 184.609488 668.524649 179.605888 C 679.398882 174.602288 690.109457 169.616883 700.69274 164.613283 C 711.276024 159.609683 724.441483 153.095906 740.170934 145.035561 L 763.774203 132.954141 Z M 769.33861 132.954141 " transform="matrix(0.214814,0,0,0.214689,18.278265,-0.985221)"/>
<g clip-path="url(#clip1)" clip-rule="nonzero">
<path style=" stroke:none;fill-rule:evenodd;fill:rgb(0%,0%,0%);fill-opacity:1;" d="M 187.769531 12.027344 L 189.0625 12.027344 L 194.632812 14.828125 C 198.347656 16.691406 200.800781 17.914062 201.996094 18.496094 C 203.1875 19.074219 207.25 20.957031 214.179688 24.140625 C 221.109375 27.324219 224.691406 28.933594 224.921875 28.964844 C 225.152344 29 226.992188 29.753906 230.441406 31.234375 C 233.890625 32.714844 236.542969 33.808594 238.398438 34.515625 C 240.253906 35.222656 242.941406 36.191406 246.457031 37.414062 C 249.96875 38.636719 252.191406 39.40625 253.121094 39.730469 C 254.046875 40.050781 255.210938 40.4375 256.601562 40.886719 C 257.996094 41.335938 259.785156 41.882812 261.972656 42.527344 C 264.160156 43.171875 266.945312 43.945312 270.328125 44.84375 C 273.710938 45.746094 276.992188 46.550781 280.175781 47.257812 C 283.359375 47.964844 285.414062 48.414062 286.34375 48.609375 C 287.269531 48.800781 290.222656 49.347656 295.195312 50.25 C 300.167969 51.152344 303.285156 51.699219 304.542969 51.890625 C 305.804688 52.082031 308.886719 52.566406 313.796875 53.339844 C 318.703125 54.109375 321.1875 54.496094 321.253906 54.496094 C 321.320312 54.496094 323.707031 54.945312 328.417969 55.847656 C 333.125 56.75 335.496094 57.214844 335.527344 57.246094 L 335.578125 57.296875 L 335.28125 71.675781 C 335.082031 81.265625 334.582031 93.652344 333.789062 108.839844 C 332.992188 124.023438 332.363281 134.640625 331.898438 140.6875 C 331.433594 146.738281 330.902344 151.917969 330.308594 156.230469 C 329.710938 160.539062 329.015625 164.625 328.21875 168.488281 C 327.421875 172.347656 326.558594 176.242188 325.632812 180.167969 C 324.703125 184.089844 323.875 187.535156 323.144531 190.492188 C 322.414062 193.453125 321.554688 196.640625 320.558594 200.050781 C 319.5625 203.460938 318.96875 205.519531 318.769531 206.226562 C 318.570312 206.933594 318.269531 207.835938 317.875 208.929688 C 317.476562 210.023438 317.011719 211.375 316.480469 212.984375 C 315.949219 214.59375 315.121094 216.910156 313.996094 219.933594 C 312.867188 222.957031 311.9375 225.371094 311.210938 227.171875 C 310.480469 228.972656 309.585938 231.128906 308.523438 233.640625 C 307.460938 236.148438 306.101562 239.171875 304.445312 242.710938 C 302.789062 246.25 301.792969 248.308594 301.460938 248.890625 C 301.128906 249.46875 299.917969 251.574219 297.832031 255.210938 C 295.742188 258.847656 294.480469 261.003906 294.050781 261.679688 C 293.621094 262.355469 292.59375 264.058594 290.96875 266.792969 C 289.34375 269.527344 288.28125 271.265625 287.785156 272.003906 C 287.289062 272.746094 286.523438 273.902344 285.496094 275.480469 C 284.46875 277.058594 283.640625 278.28125 283.011719 279.148438 C 282.378906 280.015625 281.652344 281.046875 280.820312 282.238281 C 279.992188 283.425781 279.199219 284.519531 278.433594 285.519531 C 277.671875 286.515625 277.074219 287.351562 276.644531 288.027344 C 276.214844 288.703125 275.582031 289.574219 274.753906 290.632812 C 273.925781 291.695312 273.128906 292.757812 272.367188 293.820312 C 271.605469 294.882812 270.777344 295.976562 269.878906 297.101562 C 268.984375 298.226562 268.222656 299.191406 267.59375 299.996094 C 266.960938 300.800781 265.621094 302.328125 263.5625 304.582031 C 261.507812 306.832031 259.089844 309.40625 256.304688 312.304688 C 253.519531 315.199219 251.066406 317.675781 248.941406 319.734375 C 246.820312 321.792969 245.410156 323.097656 244.714844 323.644531 C 244.019531 324.191406 242.394531 325.574219 239.839844 327.796875 C 237.289062 330.015625 235.730469 331.367188 235.167969 331.847656 C 234.601562 332.332031 233.210938 333.523438 230.988281 335.421875 C 228.769531 337.316406 227.308594 338.539062 226.613281 339.085938 C 225.917969 339.636719 225.121094 340.277344 224.226562 341.019531 C 223.328125 341.757812 222.085938 342.773438 220.496094 344.058594 C 218.902344 345.34375 217.695312 346.292969 216.863281 346.90625 C 216.035156 347.515625 215.238281 348.0625 214.476562 348.546875 C 213.714844 349.03125 212.320312 349.867188 210.300781 351.054688 C 208.277344 352.246094 206.949219 353.050781 206.320312 353.46875 C 205.691406 353.886719 204.976562 354.320312 204.183594 354.773438 C 203.386719 355.222656 202.558594 355.738281 201.695312 356.316406 C 200.832031 356.894531 200.203125 357.3125 199.804688 357.570312 C 199.40625 357.828125 198.546875 358.28125 197.21875 358.921875 C 195.894531 359.566406 194.300781 360.304688 192.445312 361.144531 C 190.589844 361.980469 189.296875 362.527344 188.566406 362.785156 L 187.472656 363.167969 L 186.277344 362.878906 C 185.484375 362.6875 184.621094 362.367188 183.691406 361.914062 C 182.765625 361.464844 181.207031 360.691406 179.015625 359.597656 C 176.828125 358.503906 175.570312 357.828125 175.238281 357.570312 C 174.90625 357.3125 174.058594 356.75 172.699219 355.882812 C 171.339844 355.015625 170.3125 354.371094 169.617188 353.953125 C 168.921875 353.535156 167.5625 352.730469 165.539062 351.539062 C 163.515625 350.347656 162.125 349.511719 161.363281 349.03125 C 160.597656 348.546875 159.804688 348 158.972656 347.386719 C 158.144531 346.777344 157.199219 346.054688 156.140625 345.21875 C 155.078125 344.378906 153.667969 343.238281 151.914062 341.789062 C 150.15625 340.34375 148.628906 339.085938 147.335938 338.027344 C 146.042969 336.964844 144.152344 335.355469 141.667969 333.199219 C 139.179688 331.042969 137.589844 329.691406 136.894531 329.144531 C 136.195312 328.597656 134.671875 327.3125 132.316406 325.285156 C 129.964844 323.257812 128.652344 322.117188 128.386719 321.859375 C 128.125 321.601562 126.945312 320.460938 124.855469 318.433594 C 122.769531 316.40625 121.308594 314.957031 120.480469 314.089844 C 119.652344 313.21875 117.828125 311.289062 115.011719 308.296875 C 112.191406 305.304688 110.5 303.472656 109.9375 302.796875 C 109.375 302.121094 108.542969 301.121094 107.449219 299.804688 C 106.355469 298.484375 105.496094 297.421875 104.863281 296.617188 C 104.234375 295.8125 103.605469 294.976562 102.972656 294.109375 C 102.34375 293.242188 101.679688 292.339844 100.984375 291.40625 C 100.289062 290.472656 99.660156 289.636719 99.09375 288.898438 C 98.53125 288.15625 98.050781 287.496094 97.652344 286.917969 C 97.253906 286.339844 96.707031 285.582031 96.011719 284.648438 C 95.316406 283.71875 94.71875 282.878906 94.222656 282.140625 C 93.722656 281.402344 93.0625 280.4375 92.230469 279.246094 C 91.402344 278.054688 90.773438 277.121094 90.34375 276.445312 C 89.910156 275.769531 89.214844 274.707031 88.253906 273.261719 C 87.292969 271.8125 86.660156 270.816406 86.363281 270.269531 C 86.066406 269.722656 85.234375 268.339844 83.875 266.117188 C 82.515625 263.898438 81.621094 262.449219 81.191406 261.773438 C 80.761719 261.097656 79.683594 259.25 77.957031 256.226562 C 76.234375 253.199219 74.941406 250.917969 74.078125 249.371094 C 73.21875 247.828125 72.453125 246.378906 71.792969 245.027344 C 71.128906 243.675781 70.199219 241.652344 69.007812 238.949219 C 67.8125 236.246094 67.214844 234.863281 67.214844 234.796875 C 67.214844 234.734375 66.621094 233.253906 65.425781 230.359375 C 64.230469 227.460938 63.304688 225.175781 62.640625 223.503906 C 61.976562 221.832031 61.050781 219.289062 59.855469 215.878906 C 58.660156 212.46875 57.46875 208.832031 56.273438 204.972656 C 55.082031 201.109375 53.753906 196.414062 52.296875 190.878906 C 50.835938 185.347656 49.808594 181.226562 49.210938 178.523438 C 48.617188 175.824219 47.785156 171.898438 46.726562 166.75 C 45.664062 161.601562 45.035156 158.222656 44.835938 156.613281 C 44.636719 155.007812 44.207031 150.082031 43.542969 141.847656 C 42.878906 133.609375 42.449219 127.402344 42.25 123.21875 C 42.050781 119.035156 41.820312 114.597656 41.554688 109.898438 C 41.289062 105.203125 40.921875 97.511719 40.460938 86.832031 C 39.996094 76.148438 39.761719 68.589844 39.761719 64.148438 L 39.761719 57.488281 L 40.410156 57.152344 C 40.839844 56.925781 42.019531 56.652344 43.941406 56.332031 C 45.863281 56.007812 48.515625 55.589844 51.898438 55.074219 C 55.28125 54.5625 60.417969 53.722656 67.316406 52.566406 C 74.210938 51.40625 79.152344 50.570312 82.136719 50.054688 C 85.121094 49.542969 89.066406 48.738281 93.972656 47.644531 C 98.878906 46.550781 103.125 45.519531 106.703125 44.554688 C 110.285156 43.589844 113.367188 42.6875 115.953125 41.851562 C 118.542969 41.015625 120.5625 40.371094 122.023438 39.921875 C 123.480469 39.472656 124.875 39.019531 126.199219 38.570312 C 127.527344 38.121094 130.179688 37.15625 134.15625 35.675781 C 138.136719 34.195312 141.867188 32.699219 145.347656 31.1875 C 148.828125 29.675781 150.6875 28.902344 150.917969 28.871094 C 151.148438 28.835938 152.824219 28.113281 155.941406 26.699219 C 159.058594 25.28125 161.875 23.996094 164.394531 22.835938 C 166.914062 21.679688 169.402344 20.519531 171.855469 19.363281 C 174.308594 18.203125 177.359375 16.691406 181.007812 14.828125 L 186.476562 12.027344 Z M 187.769531 12.027344 "/>
</g>
<g clip-path="url(#clip2)" clip-rule="nonzero">
<path style="fill:none;stroke-width:2;stroke-linecap:butt;stroke-linejoin:miter;stroke:rgb(0%,0%,0%);stroke-opacity:1;stroke-miterlimit:4;" d="M 789.014061 60.611182 L 795.033077 60.611182 L 820.96394 73.656932 C 838.257244 82.335904 849.677007 88.030911 855.241414 90.741952 C 860.787637 93.434799 879.699346 102.204745 911.958359 117.033596 C 944.217371 131.862447 960.892408 139.358749 961.965284 139.504309 C 963.038159 139.668063 971.602982 143.17968 987.659751 150.075551 C 1003.71652 156.971421 1016.063684 162.065996 1024.701244 165.359274 C 1033.338803 168.652553 1045.849627 173.16489 1062.215529 178.859897 C 1078.563248 184.554904 1088.910135 188.139301 1093.238007 189.649478 C 1097.547695 191.141461 1102.966627 192.942757 1109.440251 195.035171 C 1115.932059 197.127586 1124.260485 199.674873 1134.443713 202.677033 C 1144.626941 205.679193 1157.592373 209.281785 1173.340008 213.466614 C 1189.087643 217.669638 1204.362486 221.417789 1219.18272 224.711068 C 1234.002954 228.004347 1243.567915 230.096761 1247.895787 231.006507 C 1252.205475 231.898057 1265.952833 234.445344 1289.101493 238.648368 C 1312.250153 242.851392 1326.761253 245.39868 1332.61661 246.29023 C 1338.49015 247.181781 1352.837591 249.43795 1375.695302 253.040542 C 1398.534828 256.624939 1410.100066 258.426235 1410.4092 258.426235 C 1410.718334 258.426235 1421.828963 260.518649 1443.759273 264.721673 C 1465.671398 268.924697 1476.70929 271.089891 1476.854765 271.235451 L 1477.091161 271.471985 L 1475.709152 338.447445 C 1474.78175 383.115947 1472.454155 440.812004 1468.762735 511.553811 C 1465.053131 582.277423 1462.125452 631.731186 1459.961516 659.896905 C 1457.79758 688.080819 1455.324511 712.207269 1452.560492 732.294449 C 1449.778288 752.363433 1446.541476 771.395308 1442.831872 789.390074 C 1439.122267 807.366644 1435.103529 825.506968 1430.793841 843.792852 C 1426.465969 862.060541 1422.61089 878.108451 1419.210419 891.881997 C 1415.809948 905.673738 1411.809394 920.520784 1407.172388 936.404939 C 1402.535382 952.289095 1399.771363 961.877812 1398.843962 965.171091 C 1397.916561 968.464369 1396.516367 972.667393 1394.679749 977.761968 C 1392.824947 982.856543 1390.661011 989.151981 1388.187941 996.648284 C 1385.714871 1004.144586 1381.859792 1014.934167 1376.622703 1029.017027 C 1371.36743 1043.099887 1367.039558 1054.344341 1363.657272 1062.732194 C 1360.256801 1071.120047 1356.092588 1081.163637 1351.146448 1092.862963 C 1346.200309 1104.544095 1339.87216 1118.626955 1332.162001 1135.111542 C 1324.451843 1151.59613 1319.814837 1161.184847 1318.269168 1163.895889 C 1316.7235 1166.588735 1311.086355 1176.395791 1301.37592 1193.335252 C 1291.6473 1210.274712 1285.773759 1220.318302 1283.773482 1223.466021 C 1281.773205 1226.61374 1276.990725 1234.546721 1269.426041 1247.283157 C 1261.861357 1260.019594 1256.915218 1268.116328 1254.605807 1271.555166 C 1252.296396 1275.012199 1248.732266 1280.397892 1243.949786 1287.748635 C 1239.167306 1295.099378 1235.312226 1300.794385 1232.384548 1304.833655 C 1229.438686 1308.872925 1226.056399 1313.676381 1222.183135 1319.225828 C 1218.328056 1324.75708 1214.636636 1329.851655 1211.072506 1334.509552 C 1207.52656 1339.149253 1204.744357 1343.042964 1202.74408 1346.190683 C 1200.743803 1349.338403 1197.797941 1353.395867 1193.942861 1358.326688 C 1190.087782 1363.275703 1186.378177 1368.224718 1182.832232 1373.173734 C 1179.286286 1378.122749 1175.431207 1383.217323 1171.24881 1388.457457 C 1167.084597 1393.697591 1163.538651 1398.191734 1160.610973 1401.939885 C 1157.66511 1405.688036 1151.427883 1412.802246 1141.844738 1423.300708 C 1132.279777 1433.780976 1121.023673 1445.771421 1108.058241 1459.272044 C 1095.092809 1472.754471 1083.673046 1484.290044 1073.780767 1493.878761 C 1063.906673 1503.467478 1057.342127 1509.544578 1054.105315 1512.091865 C 1050.868504 1514.639152 1043.30382 1521.08015 1031.411264 1531.433053 C 1019.536892 1541.767762 1012.281342 1548.0632 1009.662798 1550.301174 C 1007.026069 1552.557343 1000.552445 1558.10679 990.205558 1566.949516 C 979.876855 1575.774047 973.075913 1581.469054 969.839101 1584.016341 C 966.602289 1586.581823 962.892685 1589.565788 958.728472 1593.022821 C 954.546074 1596.461659 948.763455 1601.192335 941.362431 1607.17846 C 933.943221 1613.164585 928.324262 1617.585948 924.450998 1620.442549 C 920.595919 1623.280955 916.886314 1625.828242 913.340368 1628.084411 C 909.794423 1630.340579 903.302615 1634.23429 893.901313 1639.765542 C 884.481827 1645.31499 878.299152 1649.063141 875.371474 1651.009996 C 872.443796 1652.956852 869.116063 1654.976486 865.424642 1657.087096 C 861.715038 1659.179511 857.859958 1661.581239 853.84122 1664.274085 C 849.822482 1666.966932 846.894804 1668.913787 845.040001 1670.114651 C 843.185199 1671.315515 839.184645 1673.426124 833.001971 1676.410089 C 826.837481 1679.412249 819.418272 1682.851087 810.780712 1686.762993 C 802.143152 1690.656703 796.124137 1693.203991 792.723666 1694.404855 L 787.632052 1696.187956 L 782.067645 1694.841532 C 778.376225 1693.949982 774.357486 1692.457999 770.029614 1690.34739 C 765.719927 1688.254975 758.464377 1684.652383 748.262964 1679.557809 C 738.079736 1674.463234 732.224379 1671.315515 730.678711 1670.114651 C 729.133042 1668.913787 725.187041 1666.29372 718.858892 1662.25445 C 712.530743 1658.21518 707.748263 1655.21302 704.511451 1653.266165 C 701.274639 1651.31931 694.94649 1647.571158 685.527004 1642.021711 C 676.107518 1636.472264 669.633894 1632.578553 666.087948 1630.340579 C 662.523818 1628.084411 658.832398 1625.537123 654.959135 1622.680523 C 651.104055 1619.842117 646.703446 1616.476059 641.775491 1612.582348 C 636.829351 1608.670443 630.264806 1603.357529 622.100039 1596.607218 C 613.917088 1589.875102 606.807012 1584.016341 600.787997 1579.08552 C 594.768981 1574.136505 585.967763 1566.640203 574.402525 1556.596613 C 562.819103 1546.553023 555.418078 1540.257584 552.181266 1537.710297 C 548.92627 1535.16301 541.834379 1529.176885 530.869224 1519.733727 C 519.922253 1510.290569 513.812316 1504.977655 512.575782 1503.776791 C 511.357431 1502.575927 505.865762 1497.263014 496.137142 1487.819856 C 486.426706 1478.376698 479.625764 1471.626387 475.770685 1467.587117 C 471.915606 1463.529652 463.423521 1454.541367 450.312614 1440.604067 C 437.183523 1426.666766 429.309706 1418.133354 426.691161 1414.985635 C 424.072617 1411.837916 420.199353 1407.180019 415.107739 1401.048334 C 410.016125 1394.898455 406.015571 1389.94944 403.069709 1386.201289 C 400.142031 1382.453137 397.214352 1378.559427 394.26849 1374.520157 C 391.340812 1370.480887 388.249475 1366.277863 385.012663 1361.92928 C 381.775851 1357.580696 378.848173 1353.686986 376.211444 1350.248148 C 373.5929 1346.791115 371.356226 1343.716176 369.501424 1341.023329 C 367.646622 1338.330483 365.100815 1334.80067 361.864003 1330.452087 C 358.627191 1326.121699 355.844987 1322.209793 353.535577 1318.770955 C 351.207982 1315.332117 348.134829 1310.837975 344.261565 1305.288528 C 340.406486 1299.73908 337.478808 1295.390497 335.478531 1292.242778 C 333.460069 1289.095058 330.223258 1284.146043 325.749911 1277.413927 C 321.276564 1270.663615 318.330702 1266.023914 316.948692 1263.476626 C 315.566683 1260.929339 311.693419 1254.488341 305.36527 1244.135438 C 299.037121 1233.800729 294.872908 1227.050418 292.872631 1223.902699 C 290.872354 1220.75498 285.853477 1212.148788 277.816 1198.065928 C 269.796708 1183.964873 263.777693 1173.339046 259.758955 1166.133862 C 255.758401 1158.946873 252.194271 1152.196562 249.121118 1145.901123 C 246.029781 1139.605685 241.701909 1130.180722 236.155686 1117.589845 C 230.591279 1104.998968 227.809076 1098.55797 227.809076 1098.248656 C 227.809076 1097.957538 225.045057 1091.061667 219.48065 1077.57924 C 213.916243 1064.078617 209.606555 1053.434595 206.515218 1045.647174 C 203.423881 1037.859753 199.114193 1026.014867 193.549786 1010.130711 C 187.985379 994.246556 182.439157 977.307095 176.87475 959.330525 C 171.328527 941.33576 165.145853 919.465479 158.363096 893.683293 C 151.562154 867.919301 146.779673 848.723672 143.99747 836.132795 C 141.233451 823.560113 137.360187 805.274229 132.432232 781.293339 C 127.486093 757.312449 124.558415 741.573852 123.631013 734.07755 C 122.703612 726.599442 120.703335 703.655662 117.611998 665.300793 C 114.520661 626.92773 112.520384 598.016019 111.592983 578.529271 C 110.665582 559.042524 109.592706 538.373107 108.356171 516.484631 C 107.119636 494.61435 105.410308 458.788574 103.264557 409.043693 C 101.100621 359.280616 100.009561 324.073467 100.009561 303.385855 L 100.009561 272.363535 L 103.02816 270.798773 C 105.028437 269.743468 110.520107 268.469825 119.4668 266.977842 C 128.413494 265.467665 140.760658 263.520809 156.508293 261.119081 C 172.255929 258.735548 196.168331 254.823643 228.281869 249.43795 C 260.377222 244.034062 283.380407 240.140351 297.27324 237.738623 C 311.166073 235.35509 329.532253 231.606939 352.371779 226.512364 C 375.211306 221.417789 394.977679 216.614333 411.634531 212.120191 C 428.309567 207.626048 442.657009 203.423024 454.695039 199.529314 C 466.751254 195.635603 476.152556 192.633443 482.953498 190.541029 C 489.736255 188.448614 496.228063 186.338005 502.392553 184.24559 C 508.575228 182.153176 520.922392 177.659033 539.434046 170.763162 C 557.963885 163.867292 575.329926 156.898642 591.53217 149.857212 C 607.734413 142.815782 616.390157 139.21319 617.463033 139.067631 C 618.535909 138.903877 626.336989 135.537818 640.84809 128.951261 C 655.35919 122.346509 668.470096 116.360384 680.198993 110.956496 C 691.92789 105.570803 703.511312 100.166915 714.931075 94.781222 C 726.350839 89.377334 740.552805 82.335904 757.536975 73.656932 L 782.995046 60.611182 Z M 789.014061 60.611182 " transform="matrix(0.214814,0,0,0.214689,18.278265,-0.985221)"/>
</g>
<path style="fill-rule:evenodd;fill:rgb(3.919983%,61.569214%,0%);fill-opacity:1;stroke-width:2;stroke-linecap:butt;stroke-linejoin:miter;stroke:rgb(0%,0%,0%);stroke-opacity:1;stroke-miterlimit:4;" d="M 791.559868 125.567008 L 797.14246 125.567008 L 821.163968 137.630233 C 837.184368 145.690578 847.767652 150.967101 852.913819 153.459804 C 858.059986 155.970701 875.571502 164.085631 905.466551 177.840982 C 935.343415 191.578138 950.800101 198.528594 951.80024 198.655958 C 952.800378 198.801517 960.728749 202.058406 975.603536 208.444819 C 990.478323 214.831232 1001.91627 219.561909 1009.935563 222.600459 C 1017.936671 225.657203 1029.520093 229.823838 1044.685829 235.100361 C 1059.833381 240.376885 1069.416527 243.706553 1073.417081 245.107561 C 1077.417634 246.490374 1082.436511 248.164306 1088.437342 250.092966 C 1094.438173 252.039822 1102.166516 254.40516 1111.604187 257.188981 C 1121.041857 259.954607 1133.061703 263.284275 1147.645541 267.177986 C 1162.229379 271.071697 1176.394977 274.528729 1190.124151 277.585474 C 1203.83514 280.642219 1212.709096 282.589074 1216.70965 283.42604 C 1220.710204 284.263006 1233.43924 286.610149 1254.896756 290.50386 C 1276.354273 294.39757 1289.792498 296.744713 1295.229614 297.581679 C 1300.648546 298.418645 1313.959481 300.492865 1335.126048 303.822533 C 1356.292615 307.170396 1367.003189 308.826133 1367.294139 308.826133 C 1367.585088 308.826133 1377.877423 310.772988 1398.189326 314.666699 C 1418.50123 318.542215 1428.720827 320.561849 1428.866301 320.707409 L 1429.066329 320.907553 L 1427.793426 382.970388 C 1426.938762 424.345611 1424.79301 477.802254 1421.35617 543.322122 C 1417.919331 608.860185 1415.209865 654.674966 1413.209588 680.784661 C 1411.191127 706.876161 1408.918084 729.237704 1406.335909 747.832901 C 1403.771917 766.446293 1400.753318 784.07716 1397.334662 800.743697 C 1393.897823 817.392039 1390.170034 834.204135 1386.16948 851.143595 C 1382.168926 868.083056 1378.586612 882.930101 1375.440721 895.702928 C 1372.294831 908.475754 1368.585227 922.21291 1364.293723 936.932592 C 1360.00222 951.652273 1357.438229 960.549584 1356.56538 963.588134 C 1355.710717 966.644878 1354.419629 970.538589 1352.710301 975.25107 C 1351.000974 979.981747 1349.000697 985.804118 1346.70947 992.754573 C 1344.418244 999.686833 1340.83593 1009.694033 1335.980712 1022.739783 C 1331.125494 1035.785533 1327.106756 1046.211216 1323.960865 1053.980442 C 1320.814975 1061.749669 1316.959896 1071.065462 1312.377443 1081.891433 C 1307.813175 1092.717404 1301.939634 1105.763154 1294.79319 1121.046877 C 1287.646746 1136.312406 1283.355243 1145.191522 1281.91868 1147.702419 C 1280.500302 1150.195122 1275.281397 1159.292577 1266.261967 1174.976588 C 1257.26072 1190.6606 1251.823604 1199.976393 1249.968801 1202.887579 C 1248.095815 1205.798764 1243.677021 1213.167703 1236.657867 1224.958004 C 1229.656898 1236.7665 1225.074445 1244.262802 1222.928693 1247.446911 C 1220.782942 1250.649215 1217.509761 1255.652815 1213.072783 1262.439516 C 1208.635805 1269.244413 1205.053491 1274.520936 1202.344025 1278.269087 C 1199.634558 1282.017239 1196.488668 1286.474991 1192.906354 1291.605956 C 1189.32404 1296.73692 1185.905385 1301.467597 1182.61402 1305.761595 C 1179.322655 1310.073789 1176.740479 1313.676381 1174.885677 1316.605761 C 1173.030875 1319.516946 1170.303224 1323.265098 1166.739094 1327.850215 C 1163.15678 1332.417137 1159.71994 1337.002254 1156.44676 1341.587371 C 1153.155395 1346.172488 1149.573081 1350.88497 1145.718001 1355.743011 C 1141.844738 1360.601051 1138.571557 1364.767686 1135.843907 1368.242913 C 1133.134441 1371.718141 1127.333638 1378.304698 1118.477866 1388.038974 C 1109.60391 1397.755056 1099.166101 1408.85395 1087.146254 1421.353853 C 1075.144592 1433.853756 1064.561309 1444.534167 1055.414588 1453.431478 C 1046.249682 1462.310594 1040.176114 1467.93282 1037.175698 1470.298159 C 1034.175283 1472.663497 1027.156129 1478.631427 1016.154606 1488.201949 C 1005.134898 1497.790666 998.424878 1503.613037 995.988177 1505.705452 C 993.551476 1507.779671 987.550645 1512.910636 977.967499 1521.11654 C 968.384354 1529.304249 962.092574 1534.580773 959.092158 1536.946111 C 956.091743 1539.293254 952.654903 1542.077075 948.799824 1545.261184 C 944.926561 1548.463488 939.562181 1552.830267 932.706687 1558.379714 C 925.851192 1563.947356 920.614103 1568.041211 917.049973 1570.679472 C 913.467659 1573.317734 910.049004 1575.664878 906.757639 1577.757292 C 903.466274 1579.831512 897.447259 1583.452299 888.736961 1588.583263 C 880.00848 1593.714227 874.280414 1597.189455 871.570948 1598.990751 C 868.861482 1600.810242 865.788329 1602.684318 862.35149 1604.612978 C 858.91465 1606.559833 855.332336 1608.779612 851.622731 1611.29051 C 847.913127 1613.783212 845.185476 1615.584508 843.476149 1616.694398 C 841.748637 1617.804287 838.039032 1619.751142 832.310966 1622.534963 C 826.601084 1625.30059 819.727405 1628.502894 811.726297 1632.105486 C 803.725189 1635.726273 798.142598 1638.073416 794.996708 1639.183305 L 790.268781 1640.857237 L 785.122613 1639.601788 C 781.685774 1638.783017 777.976169 1637.382009 773.975615 1635.435154 C 769.975061 1633.506494 763.246857 1630.15863 753.809186 1625.446149 C 744.371516 1620.733667 738.934399 1617.804287 737.497837 1616.694398 C 736.079459 1615.584508 732.424407 1613.164585 726.569051 1609.416434 C 720.69551 1605.668283 716.276716 1602.884462 713.258117 1601.083166 C 710.257701 1599.28187 704.402345 1595.806642 695.673863 1590.675678 C 686.945382 1585.526518 680.944551 1581.923926 677.653186 1579.831512 C 674.361821 1577.757292 670.943166 1575.391954 667.360852 1572.753692 C 663.778538 1570.11543 659.705246 1567.004101 655.140978 1563.383314 C 650.558525 1559.780722 644.484957 1554.849901 636.902089 1548.590853 C 629.31922 1542.349999 622.736491 1536.927916 617.172084 1532.360994 C 611.589493 1527.775877 603.44291 1520.825421 592.714151 1511.527823 C 581.985393 1502.230224 575.129898 1496.389658 572.111299 1494.042515 C 569.110883 1491.677177 562.546338 1486.12773 552.381294 1477.375978 C 542.234434 1468.624227 536.579105 1463.693407 535.433492 1462.583517 C 534.287879 1461.473628 529.214449 1456.542807 520.213203 1447.809251 C 511.193772 1439.0575 504.901992 1432.816646 501.337862 1429.0503 C 497.755548 1425.302148 489.899914 1416.987075 477.734593 1404.068689 C 465.587457 1391.150304 458.295538 1383.235518 455.858837 1380.324333 C 453.422136 1377.413147 449.858006 1373.100954 445.130078 1367.405947 C 440.420335 1361.729136 436.692546 1357.144019 433.98308 1353.668791 C 431.25543 1350.193563 428.545964 1346.590971 425.818313 1342.84282 C 423.108847 1339.094669 420.253906 1335.200958 417.253491 1331.179883 C 414.234891 1327.158808 411.525425 1323.538021 409.088724 1320.353912 C 406.670207 1317.151608 404.597193 1314.313202 402.869681 1311.802305 C 401.160353 1309.309602 398.79639 1306.052714 395.795974 1302.013444 C 392.795559 1297.992369 390.213383 1294.389777 388.067631 1291.187473 C 385.92188 1288.003364 383.066939 1283.83673 379.484625 1278.68757 C 375.920495 1273.556606 373.192844 1269.535531 371.338042 1266.624346 C 369.48324 1263.694965 366.482824 1259.109848 362.336795 1252.868994 C 358.190767 1246.62814 355.463116 1242.315947 354.190213 1239.950609 C 352.899125 1237.603466 349.316811 1231.635535 343.461454 1222.046818 C 337.587914 1212.476296 333.732834 1206.217247 331.878032 1203.306062 C 330.02323 1200.394876 325.36804 1192.407311 317.930646 1179.361561 C 310.493253 1166.297617 304.910662 1156.454171 301.201057 1149.776639 C 297.473268 1143.117302 294.200087 1136.876448 291.326962 1131.035883 C 288.472022 1125.213512 284.471468 1116.46176 279.3253 1104.798824 C 274.179133 1093.135887 271.596957 1087.167957 271.596957 1086.895033 C 271.596957 1086.603914 269.014782 1080.217501 263.868615 1067.717599 C 258.722447 1055.235891 254.721893 1045.37425 251.866953 1038.150871 C 248.993828 1030.927492 244.993274 1019.974157 239.847106 1005.254476 C 234.700939 990.534794 229.554772 974.850782 224.408605 958.184246 C 219.262438 941.517709 213.534372 921.24858 207.242591 897.376859 C 200.950811 873.486944 196.513833 855.710517 193.949842 844.047581 C 191.367666 832.384644 187.803536 815.463378 183.221083 793.247394 C 178.638631 771.03141 175.929164 756.439093 175.074501 749.506833 C 174.219837 742.556377 172.34685 721.322918 169.491909 685.770066 C 166.636969 650.235408 164.763982 623.434307 163.909318 605.384957 C 163.054654 587.335607 162.054516 568.176368 160.908903 547.907239 C 159.76329 527.63811 158.199437 494.450596 156.19916 448.362891 C 154.198883 402.275186 153.18056 369.633519 153.18056 350.47428 L 153.18056 321.744519 L 155.980948 320.288926 C 157.83575 319.306401 162.90918 318.123732 171.201237 316.740919 C 179.511479 315.358105 190.949426 313.556809 205.533264 311.318836 C 220.117102 309.099057 242.283807 305.496465 272.033382 300.492865 C 301.764771 295.50746 323.076813 291.886673 335.951324 289.666894 C 348.825834 287.447115 365.846372 283.971887 386.994755 279.259406 C 408.161323 274.528729 426.472949 270.089171 441.911451 265.922537 C 457.368137 261.755903 470.660887 257.880387 481.807885 254.259601 C 492.973067 250.657009 501.683364 247.873187 507.993329 245.926332 C 514.285109 243.997672 520.28594 242.050816 525.995822 240.103961 C 531.723888 238.157106 543.161835 233.990472 560.327849 227.604059 C 577.493862 221.217645 593.568815 214.758453 608.589077 208.244675 C 623.609339 201.712703 631.610447 198.383035 632.610585 198.237475 C 633.610724 198.110111 640.829905 194.980587 654.286314 188.867097 C 667.724539 182.753608 679.871675 177.20416 690.745908 172.20056 C 701.620141 167.215155 712.330715 162.211555 722.913999 157.207955 C 733.497283 152.22255 746.662742 145.690578 762.392193 137.630233 L 785.977277 125.567008 Z M 791.559868 125.567008 " transform="matrix(0.214814,0,0,0.214689,18.278265,-0.985221)"/>
<path style="fill-rule:evenodd;fill:rgb(0%,0%,0%);fill-opacity:1;stroke-width:2;stroke-linecap:butt;stroke-linejoin:miter;stroke:rgb(0%,0%,0%);stroke-opacity:1;stroke-miterlimit:4;" d="M 789.668698 169.998976 L 794.851233 169.998976 L 817.127045 181.370794 C 831.983648 188.958072 841.785005 193.925282 846.567486 196.272425 C 851.349966 198.619568 867.588578 206.26143 895.301507 219.198011 C 923.03262 232.152786 937.343692 238.684758 938.271093 238.812123 C 939.198495 238.939487 946.563151 242.014427 960.365062 248.018747 C 974.148789 254.041262 984.768441 258.480819 992.18765 261.355615 C 999.625044 264.230411 1010.353802 268.142316 1024.410294 273.109526 C 1038.484971 278.076737 1047.358927 281.224456 1051.068531 282.534489 C 1054.79632 283.826328 1059.433326 285.409285 1064.997733 287.228776 C 1070.580324 289.066462 1077.726768 291.286241 1086.491618 293.906308 C 1095.238284 296.50818 1106.385282 299.655899 1119.914428 303.313076 C 1133.443575 306.970252 1146.572665 310.227141 1159.301701 313.101937 C 1172.030736 315.976732 1180.250056 317.814418 1183.959661 318.596799 C 1187.68745 319.37918 1199.489084 321.598959 1219.382748 325.256136 C 1239.276412 328.931508 1251.732682 331.151287 1256.787927 331.933668 C 1261.824988 332.716049 1274.153968 334.681099 1293.774867 337.810623 C 1313.41395 340.940148 1323.360782 342.523105 1323.615363 342.523105 C 1323.888128 342.523105 1333.434905 344.342596 1352.273877 347.999772 C 1371.112849 351.656949 1380.586889 353.567415 1380.714179 353.694779 L 1380.914207 353.894923 L 1379.732225 412.300581 C 1378.932114 451.255882 1376.931837 501.564806 1373.749578 563.263743 C 1370.567319 624.944485 1368.057881 668.084614 1366.203079 692.647742 C 1364.348276 717.210869 1362.220709 738.262379 1359.838561 755.765881 C 1357.438229 773.287579 1354.656025 789.881336 1351.473766 805.565348 C 1348.291507 821.249359 1344.836484 837.060735 1341.126879 853.017671 C 1337.417274 868.956411 1334.107725 882.948296 1331.180047 894.956936 C 1328.270553 906.983771 1324.815529 919.920352 1320.83316 933.784873 C 1316.85079 947.631198 1314.468642 956.000857 1313.668531 958.875652 C 1312.886605 961.750448 1311.686439 965.407625 1310.104401 969.847182 C 1308.50418 974.28674 1306.649377 979.781603 1304.52181 986.313575 C 1302.394243 992.845548 1299.084693 1002.270511 1294.574978 1014.552074 C 1290.065263 1026.833638 1286.355658 1036.640694 1283.446164 1043.955047 C 1280.518486 1051.269401 1276.936172 1060.039347 1272.699222 1070.228496 C 1268.444087 1080.417645 1263.00697 1092.699209 1256.387872 1107.073187 C 1249.750589 1121.46536 1245.76822 1129.816824 1244.440763 1132.182162 C 1243.113306 1134.529305 1238.276273 1143.080912 1229.929663 1157.855179 C 1221.564868 1172.629445 1216.527807 1181.381196 1214.800295 1184.128628 C 1213.072783 1186.876059 1208.963123 1193.808319 1202.471315 1204.907214 C 1195.961323 1216.024303 1191.724372 1223.083928 1189.74228 1226.086088 C 1187.742003 1229.088248 1184.705218 1233.800729 1180.577374 1240.187143 C 1176.467714 1246.591751 1173.158165 1251.558961 1170.630542 1255.088773 C 1168.121104 1258.618586 1165.193426 1262.803415 1161.883876 1267.643261 C 1158.574327 1272.483106 1155.392068 1276.922664 1152.3371 1280.980129 C 1149.282131 1285.019399 1146.899983 1288.421847 1145.172471 1291.169278 C 1143.444959 1293.916709 1140.935521 1297.446522 1137.607788 1301.758715 C 1134.298238 1306.070909 1131.115979 1310.383102 1128.061011 1314.695296 C 1125.024227 1319.007489 1121.696493 1323.447047 1118.114179 1328.013969 C 1114.531865 1332.599086 1111.495081 1336.510992 1108.967458 1339.786075 C 1106.439835 1343.061159 1101.075456 1349.265623 1092.856136 1358.417662 C 1084.636816 1367.551507 1074.944565 1378.013579 1063.815751 1389.767491 C 1052.668753 1401.539597 1042.849211 1411.601382 1034.357126 1419.97104 C 1025.883226 1428.322503 1020.246081 1433.617222 1017.445694 1435.837001 C 1014.66349 1438.074975 1008.171682 1443.679007 997.952085 1452.703681 C 987.750672 1461.728356 981.513445 1467.205024 979.258587 1469.170074 C 977.00373 1471.135124 971.439323 1475.97497 962.547182 1483.689612 C 953.655042 1491.386058 947.81787 1496.353269 945.035667 1498.573047 C 942.253463 1500.792826 939.071204 1503.412893 935.48889 1506.415053 C 931.906576 1509.435408 926.942252 1513.547458 920.577734 1518.769397 C 914.195032 1523.991336 909.357999 1527.848656 906.04845 1530.341359 C 902.7389 1532.815866 899.556642 1535.035645 896.501673 1537.000696 C 893.446705 1538.965746 887.882298 1542.368194 879.790268 1547.189845 C 871.698238 1552.029691 866.388412 1555.304774 863.878974 1556.996901 C 861.351351 1558.707222 858.49641 1560.472128 855.314151 1562.291619 C 852.131893 1564.129305 848.822343 1566.22172 845.367319 1568.568863 C 841.93048 1570.916006 839.402857 1572.626328 837.802636 1573.663437 C 836.220598 1574.700547 832.765574 1576.538233 827.473933 1579.1583 C 822.164106 1581.760172 815.799589 1584.780527 808.362195 1588.16478 C 800.942986 1591.567228 795.76045 1593.787007 792.850956 1594.842312 L 788.468531 1596.407074 L 783.704235 1595.224405 C 780.521976 1594.442024 777.066952 1593.13199 773.357348 1591.312499 C 769.647743 1589.474814 763.410516 1586.345289 754.66385 1581.905731 C 745.899 1577.447979 740.861939 1574.700547 739.534482 1573.663437 C 738.207026 1572.626328 734.824739 1570.333769 729.387623 1566.803957 C 723.950506 1563.274144 719.840846 1560.654077 717.058643 1558.961951 C 714.276439 1557.269824 708.839323 1553.994741 700.747293 1549.154895 C 692.655264 1544.315049 687.090857 1540.930796 684.035888 1538.965746 C 680.98092 1537.000696 677.798661 1534.780917 674.489112 1532.306409 C 671.161378 1529.813706 667.379036 1526.866131 663.142086 1523.481878 C 658.905135 1520.07943 653.267991 1515.439728 646.230653 1509.562773 C 639.211499 1503.685817 633.101562 1498.573047 627.937211 1494.260854 C 622.754675 1489.948661 615.189991 1483.416688 605.243159 1474.664937 C 595.296327 1465.913186 588.93181 1460.418323 586.149606 1458.198544 C 583.367403 1455.978765 577.27565 1450.738631 567.856164 1442.514532 C 558.436678 1434.272239 553.199589 1429.632537 552.144897 1428.595427 C 551.072021 1427.540122 546.362278 1422.90042 538.015668 1414.676321 C 529.650873 1406.434028 523.813701 1400.557072 520.504152 1397.027259 C 517.194603 1393.497447 509.8845 1385.655441 498.628396 1373.501242 C 487.354107 1361.347043 480.589534 1353.905325 478.334676 1351.157894 C 476.079819 1348.410462 472.752085 1344.352997 468.387844 1339.003694 C 464.005419 1333.636196 460.550396 1329.324003 458.040957 1326.067114 C 455.513334 1322.79203 453.003896 1319.389582 450.476273 1315.877965 C 447.948651 1312.348152 445.311922 1308.672781 442.511534 1304.88824 C 439.729331 1301.103698 437.219892 1297.70125 434.965034 1294.69909 C 432.710177 1291.69693 430.782637 1289.004084 429.182416 1286.656941 C 427.600378 1284.309797 425.418258 1281.234858 422.61787 1277.450317 C 419.835667 1273.647581 417.453519 1270.263327 415.471426 1267.242973 C 413.471149 1264.240812 410.816236 1260.328907 407.506687 1255.489061 C 404.197137 1250.649215 401.669515 1246.864674 399.942003 1244.117243 C 398.214491 1241.369812 395.432287 1237.057618 391.595392 1231.180663 C 387.740313 1225.303707 385.230875 1221.246242 384.030709 1219.026463 C 382.830542 1216.806684 379.520993 1211.184457 374.083877 1202.159782 C 368.64676 1193.153302 365.064446 1187.258152 363.336934 1184.528916 C 361.609422 1181.781484 357.299734 1174.266987 350.407871 1161.985423 C 343.516007 1149.685664 338.333472 1140.406261 334.896632 1134.147212 C 331.441608 1127.869968 328.38664 1121.993013 325.749911 1116.49815 C 323.094998 1111.003288 319.367209 1102.779189 314.602913 1091.789464 C 309.820432 1080.817933 307.438284 1075.195706 307.438284 1074.940978 C 307.438284 1074.668054 305.056136 1068.663734 300.273656 1056.891628 C 295.50936 1045.137717 291.781571 1035.858313 289.126658 1029.053417 C 286.489929 1022.266716 282.76214 1011.932007 277.997844 998.085681 C 273.215363 984.239356 268.451067 969.465089 263.668587 953.781078 C 258.904291 938.097066 253.594465 919.010606 247.757293 896.539893 C 241.920121 874.050986 237.810461 857.329864 235.428313 846.358334 C 233.02798 835.368609 229.718431 819.429869 225.481481 798.523918 C 221.226346 777.599772 218.716908 763.880811 217.916797 757.348838 C 217.116686 750.816866 215.389174 730.820661 212.734261 697.360223 C 210.097532 663.899785 208.37002 638.681641 207.56991 621.687596 C 206.769799 604.693551 205.842398 586.662396 204.787706 567.575936 C 203.71483 548.489476 202.260083 517.267012 200.405281 473.872154 C 198.550479 430.477296 197.623078 399.764289 197.623078 381.733134 L 197.623078 354.677304 L 200.205253 353.294491 C 201.932765 352.384746 206.642508 351.274856 214.334483 349.964823 C 222.026457 348.654789 232.627925 346.962663 246.157071 344.870248 C 259.686217 342.777834 280.252702 339.375386 307.83834 334.681099 C 335.423978 329.968617 355.190351 326.566169 367.119276 324.49195 C 379.0482 322.399535 394.832204 319.124452 414.471287 314.684894 C 434.092186 310.245336 451.076356 306.060507 465.405613 302.130406 C 479.716686 298.218501 492.06385 294.561324 502.392553 291.158876 C 512.739441 287.756428 520.83147 285.136361 526.668642 283.31687 C 532.505814 281.479185 538.070221 279.659694 543.380047 277.822008 C 548.689873 276.002517 559.291341 272.072417 575.22082 266.068097 C 591.132114 260.045582 606.04327 253.968482 619.972472 247.836798 C 633.901673 241.686918 641.320882 238.557394 642.248283 238.43003 C 643.175685 238.28447 649.885705 235.35509 662.341975 229.605499 C 674.81643 223.855907 686.090718 218.615773 696.16484 213.921487 C 706.238963 209.209005 716.185795 204.514719 726.005336 199.802237 C 735.824878 195.089756 748.026567 188.958072 762.610405 181.370794 L 784.504346 169.998976 Z M 789.668698 169.998976 " transform="matrix(0.214814,0,0,0.214689,18.278265,-0.985221)"/>
<g clip-path="url(#clip3)" clip-rule="nonzero">
<path style=" stroke:none;fill-rule:nonzero;fill:rgb(3.919983%,61.569214%,0%);fill-opacity:1;" d="M 223.621094 207.933594 C 222.660156 207.933594 221.699219 207.566406 220.964844 206.832031 C 219.5 205.363281 219.5 202.980469 220.964844 201.511719 L 259.449219 162.964844 L 220.964844 124.414062 C 219.5 122.945312 219.5 120.5625 220.964844 119.09375 C 222.433594 117.625 224.808594 117.625 226.277344 119.09375 L 267.417969 160.304688 C 268.121094 161.007812 268.515625 161.964844 268.515625 162.964844 C 268.515625 163.960938 268.121094 164.917969 267.417969 165.621094 L 226.277344 206.832031 C 225.542969 207.566406 224.582031 207.933594 223.621094 207.933594 Z M 223.621094 207.933594 "/>
</g>
<g clip-path="url(#clip4)" clip-rule="nonzero">
<path style=" stroke:none;fill-rule:nonzero;fill:rgb(3.919983%,61.569214%,0%);fill-opacity:1;" d="M 151.492188 207.933594 C 150.53125 207.933594 149.570312 207.566406 148.839844 206.832031 L 107.699219 165.625 C 106.996094 164.917969 106.601562 163.960938 106.601562 162.964844 C 106.601562 161.964844 106.996094 161.007812 107.699219 160.304688 L 148.839844 119.097656 C 150.304688 117.628906 152.683594 117.628906 154.148438 119.097656 C 155.617188 120.566406 155.617188 122.945312 154.148438 124.414062 L 115.664062 162.964844 L 154.148438 201.511719 C 155.617188 202.980469 155.617188 205.363281 154.148438 206.832031 C 153.414062 207.566406 152.453125 207.933594 151.492188 207.933594 Z M 151.492188 207.933594 "/>
</g>
<g clip-path="url(#clip5)" clip-rule="nonzero">
<path style=" stroke:none;fill-rule:nonzero;fill:rgb(3.919983%,61.569214%,0%);fill-opacity:1;" d="M 165.203125 223.46875 C 164.746094 223.46875 164.277344 223.382812 163.828125 223.207031 C 161.898438 222.445312 160.949219 220.257812 161.710938 218.324219 L 206.417969 104.839844 C 207.179688 102.90625 209.359375 101.957031 211.289062 102.71875 C 213.21875 103.484375 214.164062 105.667969 213.402344 107.601562 L 168.699219 221.085938 C 168.117188 222.566406 166.699219 223.46875 165.203125 223.46875 Z M 165.203125 223.46875 "/>
</g>
<use xlink:href="#surface5" transform="matrix(1,0,0,1,103,115)" mask="url(#mask0)"/>
</g>
</svg>
